<?xml version="1.0" encoding="utf-8"?>
<svg viewBox="0 0 54 45" xmlns="http://www.w3.org/2000/svg">
  <polygon id="路径-28" class="cls-3" points="7.839 36.69 43.701 34.17 43.951 37.884 7.923 39.882 7.839 36.69" style="fill-rule: evenodd; fill: rgb(15, 15, 15);"/>
  <polygon id="路径-28-2" data-name="路径-28" class="cls-3" points="43.156 34.69 7.839 19.607 8.933 12.325 46.901 9.764 47.15 13.538 11.169 15.569 10.917 17.25 44.542 30.902 43.156 34.69" style="fill-rule: evenodd; fill: rgb(15, 15, 15);"/>
  <polygon id="路径-28-3" data-name="路径-28" class="cls-4" points="0.525 43.65 9.072 1.976 16.016 1.976 24.295 43.65 20.823 44.555 13.345 4.995 11.742 4.995 4.264 44.555 0.525 43.65" style="fill-rule: evenodd; fill: rgb(255, 255, 255);"/>
  <circle id="椭圆形" class="cls-5" cx="850.01" cy="504.57" r="61.4" style="fill: rgb(235, 51, 51);" transform="matrix(0.070722, 0, 0, 0.080339, -11.363607, -28.954981)"/>
  <circle id="椭圆形-2" data-name="椭圆形" class="cls-5" cx="320" cy="821.28" r="61.4" style="fill: rgb(235, 51, 51);" transform="matrix(0.070722, 0, 0, 0.080339, -11.363607, -28.954981)"/>
  <polygon id="路径-28-4" data-name="路径-28" class="cls-4" points="24.752 43.65 33.299 1.976 40.243 1.976 48.522 43.65 45.05 44.555 37.572 4.995 35.969 4.995 28.491 44.555 24.752 43.65" style="fill-rule: evenodd; fill: rgb(255, 255, 255);"/>
  <circle id="椭圆形-3" data-name="椭圆形" class="cls-5" cx="585" cy="692.01" r="61.4" style="fill: rgb(235, 51, 51);" transform="matrix(0.070722, 0, 0, 0.080339, -11.363607, -28.954981)"/>
  <circle id="椭圆形-4" data-name="椭圆形" class="cls-5" cx="416.95" cy="640.3" r="61.4" style="fill: rgb(235, 51, 51);" transform="matrix(0.070722, 0, 0, 0.080339, -11.363607, -28.954981)"/>
  <polygon class="cls-3" points="13.782 11.998 19.951 11.582 22.001 14.958 13.48 15.439 13.782 11.998" style="fill-rule: evenodd; fill: rgb(21, 21, 217);"/>
  <polygon class="cls-3" points="37.288 10.413 43.017 10.026 43.951 13.719 37.288 14.095 37.288 10.413" style="fill-rule: evenodd; fill: rgb(21, 21, 217);"/>
  <polygon class="cls-3" points="24.752 35.502 31.717 35.012 30.446 38.633 24.295 38.974 24.752 35.502" style="fill-rule: evenodd; fill: rgb(21, 21, 217);"/>
</svg>